<?xml version="1.0" encoding="UTF-8" standalone="no"?>
<svg
   xmlns:dc="http://purl.org/dc/elements/1.1/"
   xmlns:cc="http://creativecommons.org/ns#"
   xmlns:rdf="http://www.w3.org/1999/02/22-rdf-syntax-ns#"
   xmlns:svg="http://www.w3.org/2000/svg"
   xmlns="http://www.w3.org/2000/svg"
   xmlns:sodipodi="http://sodipodi.sourceforge.net/DTD/sodipodi-0.dtd"
   xmlns:inkscape="http://www.inkscape.org/namespaces/inkscape"
   width="1166.3464mm"
   height="660.44165mm"
   viewBox="0 0 1166.3464 660.44164"
   version="1.1"
   id="svg8"
   inkscape:version="1.0.1 (3bc2e813f5, 2020-09-07)"
   sodipodi:docname="more-nodes.svg"
   inkscape:export-filename="/home/anon/code/gatewaynode_n4/static/images/more-nodes.png"
   inkscape:export-xdpi="96"
   inkscape:export-ydpi="96">
  <defs
     id="defs2" />
  <sodipodi:namedview
     id="base"
     pagecolor="#4b4b4b"
     bordercolor="#666666"
     borderopacity="1.0"
     inkscape:pageopacity="0"
     inkscape:pageshadow="2"
     inkscape:zoom="0.29078457"
     inkscape:cx="2131.3587"
     inkscape:cy="1187.3802"
     inkscape:document-units="mm"
     inkscape:current-layer="layer1"
     inkscape:document-rotation="0"
     showgrid="false"
     inkscape:pagecheckerboard="false"
     showborder="false"
     inkscape:window-width="1920"
     inkscape:window-height="1016"
     inkscape:window-x="0"
     inkscape:window-y="27"
     inkscape:window-maximized="1" />
  <metadata
     id="metadata5">
    <rdf:RDF>
      <cc:Work
         rdf:about="">
        <dc:format>image/svg+xml</dc:format>
        <dc:type
           rdf:resource="http://purl.org/dc/dcmitype/StillImage" />
        <dc:title />
      </cc:Work>
    </rdf:RDF>
  </metadata>
  <g
     inkscape:groupmode="layer"
     id="layer3"
     inkscape:label="Background"
     transform="translate(243.39079,159.41017)" />
  <g
     inkscape:label="Nodes"
     inkscape:groupmode="layer"
     id="layer1"
     transform="translate(633.87857,208.89308)">
    <path
       id="path10"
       style="font-variation-settings:normal;opacity:1;vector-effect:none;fill:#d2d2d2;fill-opacity:1;fill-rule:evenodd;stroke:#000000;stroke-width:4;stroke-linecap:butt;stroke-linejoin:miter;stroke-miterlimit:3.9;stroke-dasharray:none;stroke-dashoffset:0;stroke-opacity:1;paint-order:markers stroke fill;stop-color:#000000;stop-opacity:1"
       d="m 343.34261,139.58438 c 0,64.70994 -52.45779,117.16772 -117.16774,117.16772 -64.70994,0 -117.16772,-52.45778 -117.16772,-117.16772 0,-64.709951 52.45777,-117.167731 117.16772,-117.167734 64.70995,-5e-6 117.16774,52.457783 117.16774,117.167734 z"
       sodipodi:nodetypes="sssss" />
    <path
       id="path841"
       style="font-variation-settings:normal;opacity:1;vector-effect:none;fill:#d2d2d2;fill-opacity:1;stroke:#000000;stroke-width:4;stroke-linecap:butt;stroke-linejoin:miter;stroke-miterlimit:3.9;stroke-dasharray:none;stroke-dashoffset:0;stroke-opacity:1;paint-order:markers stroke fill;stop-color:#000000;stop-opacity:1"
       d="m -185.15529,-11.527367 c 0,24.501585 -19.86246,44.364044 -44.36405,44.364044 -24.50158,0 -44.36404,-19.862459 -44.36404,-44.364044 0,-24.501586 19.86246,-44.364043 44.36404,-44.364043 24.50159,0 44.36405,19.862457 44.36405,44.364043 z"
       sodipodi:nodetypes="sssss" />
    <path
       id="path841-3"
       style="font-variation-settings:normal;opacity:1;vector-effect:none;fill:#d2d2d2;fill-opacity:1;stroke:#000000;stroke-width:4;stroke-linecap:butt;stroke-linejoin:miter;stroke-miterlimit:3.9;stroke-dasharray:none;stroke-dashoffset:0;stroke-opacity:1;paint-order:markers stroke fill;stop-color:#000000;stop-opacity:1"
       d="m 512.76445,-138.65032 c 19.58751,14.71928 23.53399,42.530422 8.81472,62.11793 -14.71927,19.587511 -42.53042,23.533998 -62.11793,8.814729 -19.5875,-14.719273 -23.53399,-42.530419 -8.81472,-62.117929 14.71927,-19.58751 42.53042,-23.534 62.11793,-8.81473 z"
       sodipodi:nodetypes="sssss" />
    <path
       id="path841-6"
       style="font-variation-settings:normal;opacity:1;vector-effect:none;fill:#d2d2d2;fill-opacity:1;stroke:#000000;stroke-width:4;stroke-linecap:butt;stroke-linejoin:miter;stroke-miterlimit:3.9;stroke-dasharray:none;stroke-dashoffset:0;stroke-opacity:1;paint-order:markers stroke fill;stop-color:#000000;stop-opacity:1"
       d="m -108.15242,123.98832 c 0,24.50159 -19.86245,44.36404 -44.36404,44.36404 -24.50158,0 -44.36404,-19.86246 -44.36404,-44.36404 0,-24.501588 19.86246,-44.364047 44.36404,-44.364049 24.50159,-3e-6 44.36404,19.862457 44.36404,44.364049 z"
       sodipodi:nodetypes="sssss" />
    <path
       id="path841-7"
       style="font-variation-settings:normal;opacity:1;vector-effect:none;fill:#d2d2d2;fill-opacity:1;stroke:#000000;stroke-width:4;stroke-linecap:butt;stroke-linejoin:miter;stroke-miterlimit:3.9;stroke-dasharray:none;stroke-dashoffset:0;stroke-opacity:1;paint-order:markers stroke fill;stop-color:#000000;stop-opacity:1"
       d="m 397.67387,405.18455 c 0,24.50158 -19.86246,44.36404 -44.36405,44.36404 -24.50158,0 -44.36404,-19.86246 -44.36404,-44.36404 0,-24.50159 19.86246,-44.36405 44.36404,-44.36405 24.50159,0 44.36405,19.86246 44.36405,44.36405 z"
       sodipodi:nodetypes="sssss" />
    <path
       id="path870"
       style="font-variation-settings:normal;opacity:1;vector-effect:none;fill:#d2d2d2;fill-opacity:1;stroke:#000000;stroke-width:4;stroke-linecap:butt;stroke-linejoin:miter;stroke-miterlimit:3.9;stroke-dasharray:none;stroke-dashoffset:0;stroke-opacity:1;paint-order:markers stroke fill;stop-color:#000000;stop-opacity:1"
       d="m -499.71144,18.405541 c 0,15.015144 -12.17218,27.187324 -27.18732,27.187329 -15.01515,1e-6 -27.18733,-12.172181 -27.18733,-27.187329 0,-15.0151467 12.17218,-27.1873287 27.18733,-27.1873277 15.01514,4e-6 27.18732,12.172184 27.18732,27.1873277 z"
       sodipodi:nodetypes="sssss" />
    <path
       id="path870-5"
       style="font-variation-settings:normal;opacity:1;vector-effect:none;fill:#d2d2d2;fill-opacity:1;stroke:#000000;stroke-width:4;stroke-linecap:butt;stroke-linejoin:miter;stroke-miterlimit:3.9;stroke-dasharray:none;stroke-dashoffset:0;stroke-opacity:1;paint-order:markers stroke fill;stop-color:#000000;stop-opacity:1"
       d="m 522.852,129.43293 c 0,15.01514 -12.17218,27.18733 -27.18732,27.18733 -15.01515,0 -27.18733,-12.17218 -27.18733,-27.18733 0,-15.01515 12.17218,-27.18733 27.18733,-27.18733 15.01514,0 27.18732,12.17219 27.18732,27.18733 z"
       sodipodi:nodetypes="sssss" />
    <path
       id="path870-5-3"
       style="font-variation-settings:normal;opacity:1;vector-effect:none;fill:#d2d2d2;fill-opacity:1;stroke:#000000;stroke-width:4;stroke-linecap:butt;stroke-linejoin:miter;stroke-miterlimit:3.9;stroke-dasharray:none;stroke-dashoffset:0;stroke-opacity:1;paint-order:markers stroke fill;stop-color:#000000;stop-opacity:1"
       d="m -577.50391,389.1285 c 0,15.01515 -12.17218,27.18733 -27.18733,27.18733 -15.01515,0 -27.18733,-12.17218 -27.18733,-27.18733 0,-15.01515 12.17218,-27.18733 27.18733,-27.18733 15.01515,0 27.18733,12.17218 27.18733,27.18733 z"
       sodipodi:nodetypes="sssss" />
    <path
       sodipodi:type="star"
       style="fill:#d2d2d2;fill-opacity:1;stroke:#000000;stroke-width:4;stroke-miterlimit:3.9;stroke-dasharray:none;stroke-opacity:1;paint-order:markers stroke fill;stop-color:#000000"
       id="path832"
       sodipodi:sides="6"
       sodipodi:cx="266.78897"
       sodipodi:cy="-143.44125"
       sodipodi:r1="69.37989"
       sodipodi:r2="60.084747"
       sodipodi:arg1="-1.0471976"
       sodipodi:arg2="-0.52359878"
       inkscape:flatsided="true"
       inkscape:rounded="0"
       inkscape:randomized="0"
       d="m 301.47891,-203.526 34.68995,60.08474 -34.68994,60.084752 -69.37989,4e-6 -34.68995,-60.084746 34.68994,-60.08475 z"
       inkscape:transform-center-x="-3.276308e-06"
       transform="rotate(6.5849656,268.77832,-58.250685)" />
    <path
       sodipodi:type="star"
       style="fill:#d2d2d2;fill-opacity:1;stroke:#000000;stroke-width:4;stroke-miterlimit:3.9;stroke-dasharray:none;stroke-opacity:1;paint-order:markers stroke fill;stop-color:#000000"
       id="path832-9"
       sodipodi:sides="6"
       sodipodi:cx="-181.16403"
       sodipodi:cy="297.55167"
       sodipodi:r1="69.37989"
       sodipodi:r2="60.084747"
       sodipodi:arg1="-1.0471976"
       sodipodi:arg2="-0.52359878"
       inkscape:flatsided="true"
       inkscape:rounded="0"
       inkscape:randomized="0"
       d="m -146.47409,237.46692 34.68995,60.08474 -34.68994,60.08475 -69.37989,10e-6 -34.68995,-60.08475 34.68994,-60.08475 z"
       inkscape:transform-center-x="-3.3878283e-06"
       transform="rotate(7.7896106,-181.16403,297.55167)" />
    <path
       id="path841-9"
       style="font-variation-settings:normal;opacity:1;vector-effect:none;fill:#d2d2d2;fill-opacity:1;stroke:#000000;stroke-width:4;stroke-linecap:butt;stroke-linejoin:miter;stroke-miterlimit:3.9;stroke-dasharray:none;stroke-dashoffset:0;stroke-opacity:1;paint-order:markers stroke fill;stop-color:#000000;stop-opacity:1"
       d="m -351.64207,131.16683 c 0,24.50158 -19.86246,44.36404 -44.36404,44.36404 -24.50159,0 -44.36405,-19.86246 -44.36405,-44.36404 0,-24.50159 19.86246,-44.364049 44.36405,-44.364049 24.50158,0 44.36404,19.862459 44.36404,44.364049 z"
       sodipodi:nodetypes="sssss" />
    <path
       id="path870-5-2"
       style="font-variation-settings:normal;opacity:1;vector-effect:none;fill:#d2d2d2;fill-opacity:1;stroke:#000000;stroke-width:4;stroke-linecap:butt;stroke-linejoin:miter;stroke-miterlimit:3.9;stroke-dasharray:none;stroke-dashoffset:0;stroke-opacity:1;paint-order:markers stroke fill;stop-color:#000000;stop-opacity:1"
       d="m 90.73382,345.82112 c 0,15.01514 -12.17218,27.18733 -27.18732,27.18733 -15.01515,0 -27.187325,-12.17218 -27.187325,-27.18733 0,-15.01515 12.172175,-27.18733 27.187325,-27.18733 15.01514,0 27.18732,12.17219 27.18732,27.18733 z"
       sodipodi:nodetypes="sssss" />
    <path
       id="path841-0"
       style="font-variation-settings:normal;opacity:1;vector-effect:none;fill:#d2d2d2;fill-opacity:1;stroke:#000000;stroke-width:4;stroke-linecap:butt;stroke-linejoin:miter;stroke-miterlimit:3.9;stroke-dasharray:none;stroke-dashoffset:0;stroke-opacity:1;paint-order:markers stroke fill;stop-color:#000000;stop-opacity:1"
       d="m 94.094519,-26.14276 c 0,24.5015871 -19.86246,44.364045 -44.36405,44.364045 -24.501581,0 -44.3640406,-19.8624579 -44.3640406,-44.364045 0,-24.501588 19.8624596,-44.364048 44.3640406,-44.364048 24.50159,0 44.36405,19.86246 44.36405,44.364048 z"
       sodipodi:nodetypes="sssss" />
    <path
       id="path870-2"
       style="font-variation-settings:normal;opacity:1;vector-effect:none;fill:#d2d2d2;fill-opacity:1;stroke:#000000;stroke-width:4;stroke-linecap:butt;stroke-linejoin:miter;stroke-miterlimit:3.9;stroke-dasharray:none;stroke-dashoffset:0;stroke-opacity:1;paint-order:markers stroke fill;stop-color:#000000;stop-opacity:1"
       d="m 76.990246,-179.68388 c 0,15.01515 -12.17218,27.18733 -27.18732,27.18733 -15.01515,0 -27.18733,-12.17218 -27.18733,-27.18733 0,-15.01514 12.17218,-27.18733 27.18733,-27.18732 15.01514,0 27.18732,12.17218 27.18732,27.18732 z"
       sodipodi:nodetypes="sssss" />
    <path
       id="path870-8"
       style="font-variation-settings:normal;opacity:1;vector-effect:none;fill:#d2d2d2;fill-opacity:1;stroke:#000000;stroke-width:4;stroke-linecap:butt;stroke-linejoin:miter;stroke-miterlimit:3.9;stroke-dasharray:none;stroke-dashoffset:0;stroke-opacity:1;paint-order:markers stroke fill;stop-color:#000000;stop-opacity:1"
       d="m -463.4173,285.50078 c 0,15.01514 -12.17218,27.18732 -27.18732,27.18733 -15.01515,0 -27.18733,-12.17218 -27.18733,-27.18733 0,-15.01515 12.17218,-27.18733 27.18733,-27.18733 15.01514,1e-5 27.18732,12.17219 27.18732,27.18733 z"
       sodipodi:nodetypes="sssss" />
  </g>
  <g
     inkscape:groupmode="layer"
     id="layer2"
     inkscape:label="Lines"
     transform="translate(243.39079,159.41017)">
    <path
       style="fill:none;stroke:#d2d2d2;stroke-width:20;stroke-linecap:butt;stroke-linejoin:miter;stroke-miterlimit:4;stroke-dasharray:none;stroke-opacity:1"
       d="M 702.02682,128.25611 859.85848,-34.048403"
       id="path1682"
       sodipodi:nodetypes="cc" />
    <path
       style="font-variation-settings:normal;opacity:1;vector-effect:none;fill:none;fill-opacity:1;stroke:#d2d2d2;stroke-width:20;stroke-linecap:butt;stroke-linejoin:miter;stroke-miterlimit:4;stroke-dasharray:none;stroke-dashoffset:0;stroke-opacity:1;stop-color:#000000;stop-opacity:1"
       d="M 637.98445,94.443086 660.25988,-46.840303"
       id="path1684"
       sodipodi:nodetypes="cc" />
    <path
       style="font-variation-settings:normal;opacity:1;vector-effect:none;fill:none;fill-opacity:1;stroke:#d2d2d2;stroke-width:20;stroke-linecap:butt;stroke-linejoin:miter;stroke-miterlimit:4;stroke-dasharray:none;stroke-dashoffset:0;stroke-opacity:1;stop-color:#000000;stop-opacity:1"
       d="M 532.12617,236.82663 232.19196,336.80741"
       id="path1688"
       sodipodi:nodetypes="cc" />
    <path
       style="font-variation-settings:normal;opacity:1;vector-effect:none;fill:none;fill-opacity:1;stroke:#d2d2d2;stroke-width:20;stroke-linecap:butt;stroke-linejoin:miter;stroke-miterlimit:4;stroke-dasharray:none;stroke-dashoffset:0;stroke-opacity:1;stop-color:#000000;stop-opacity:1"
       d="M 557.38091,274.8666 455.2128,399.23172"
       id="path1690" />
    <path
       style="font-variation-settings:normal;opacity:1;vector-effect:none;fill:none;fill-opacity:1;stroke:#d2d2d2;stroke-width:20;stroke-linecap:butt;stroke-linejoin:miter;stroke-miterlimit:4;stroke-dasharray:none;stroke-dashoffset:0;stroke-opacity:1;stop-color:#000000;stop-opacity:1"
       d="M 648.31839,283.52438 733.96311,435.1337"
       id="path1692" />
    <path
       style="font-variation-settings:normal;opacity:1;vector-effect:none;fill:none;fill-opacity:1;stroke:#d2d2d2;stroke-width:20;stroke-linecap:butt;stroke-linejoin:miter;stroke-miterlimit:4;stroke-dasharray:none;stroke-dashoffset:0;stroke-opacity:1;stop-color:#000000;stop-opacity:1"
       d="m 707.79664,188.07353 166.93204,-8.21795"
       id="path1694"
       sodipodi:nodetypes="cc" />
    <path
       style="font-variation-settings:normal;opacity:1;vector-effect:none;fill:none;fill-opacity:1;stroke:#d2d2d2;stroke-width:20;stroke-linecap:butt;stroke-linejoin:miter;stroke-miterlimit:4;stroke-dasharray:none;stroke-dashoffset:0;stroke-opacity:1;stop-color:#000000;stop-opacity:1"
       d="M 215.41015,313.70952 231.0175,206.65416"
       id="path1735"
       sodipodi:nodetypes="cc" />
    <path
       style="font-variation-settings:normal;opacity:1;vector-effect:none;fill:none;fill-opacity:1;stroke:#d2d2d2;stroke-width:20;stroke-linecap:butt;stroke-linejoin:miter;stroke-miterlimit:4;stroke-dasharray:none;stroke-dashoffset:0;stroke-opacity:1;stop-color:#000000;stop-opacity:1"
       d="M 226.36094,148.00767 180.12991,60.731589"
       id="path1737"
       sodipodi:nodetypes="cc" />
    <path
       style="font-variation-settings:normal;opacity:1;vector-effect:none;fill:none;fill-opacity:1;stroke:#d2d2d2;stroke-width:20;stroke-linecap:butt;stroke-linejoin:miter;stroke-miterlimit:4;stroke-dasharray:none;stroke-dashoffset:0;stroke-opacity:1;stop-color:#000000;stop-opacity:1"
       d="M 183.35603,327.40925 16.513461,202.07838"
       id="path1739"
       sodipodi:nodetypes="cc" />
    <path
       style="font-variation-settings:normal;opacity:1;vector-effect:none;fill:none;fill-opacity:1;stroke:#d2d2d2;stroke-width:20;stroke-linecap:butt;stroke-linejoin:miter;stroke-miterlimit:4;stroke-dasharray:none;stroke-dashoffset:0;stroke-opacity:1;stop-color:#000000;stop-opacity:1"
       d="m 171.77425,363.3085 -380.70667,71.59544"
       id="path1741"
       sodipodi:nodetypes="cc" />
    <path
       style="font-variation-settings:normal;opacity:1;vector-effect:none;fill:none;fill-opacity:1;stroke:#d2d2d2;stroke-width:20;stroke-linecap:butt;stroke-linejoin:miter;stroke-miterlimit:4;stroke-dasharray:none;stroke-dashoffset:0;stroke-opacity:1;stop-color:#000000;stop-opacity:1"
       d="M -18.405939,171.07593 -132.13548,75.852146"
       id="path1743"
       sodipodi:nodetypes="cc" />
    <path
       style="font-variation-settings:normal;opacity:1;vector-effect:none;fill:none;fill-opacity:1;stroke:#d2d2d2;stroke-width:20;stroke-linecap:butt;stroke-linejoin:miter;stroke-miterlimit:4;stroke-dasharray:none;stroke-dashoffset:0;stroke-opacity:1;stop-color:#000000;stop-opacity:1"
       d="M -20.547759,211.82899 -92.311429,328.9939"
       id="path1766"
       sodipodi:nodetypes="cc" />
    <path
       style="font-variation-settings:normal;opacity:1;vector-effect:none;fill:none;fill-opacity:1;stroke:#d2d2d2;stroke-width:20;stroke-linecap:butt;stroke-linejoin:miter;stroke-miterlimit:4;stroke-dasharray:none;stroke-dashoffset:0;stroke-opacity:1;stop-color:#000000;stop-opacity:1"
       d="M 440.69299,-110.76187 440.04643,-1.8983228"
       id="path1766-3"
       sodipodi:nodetypes="cc" />
    <path
       style="font-variation-settings:normal;opacity:1;vector-effect:none;fill:none;fill-opacity:1;stroke:#d2d2d2;stroke-width:20;stroke-linecap:butt;stroke-linejoin:miter;stroke-miterlimit:4;stroke-dasharray:none;stroke-dashoffset:0;stroke-opacity:1;stop-color:#000000;stop-opacity:1"
       d="M 571.55497,146.36177 467.14068,50.699179"
       id="path1686" />
  </g>
</svg>
